<svg version="1.1" id="Layer_1" xmlns="http://www.w3.org/2000/svg" xmlns:xlink="http://www.w3.org/1999/xlink" x="0px" y="0px"
	 width="100%" viewBox="0 0 1420 472" enable-background="new 0 0 1420 472" xml:space="preserve">
<path fill="#F9C21C" opacity="1.000000" stroke="none"
	d="
M170.333328,473.000000
	C160.121521,455.923553 150.207733,438.867401 140.374054,421.765198
	C129.640213,403.097443 119.030792,384.358032 108.274361,365.703369
	C97.683090,347.335144 86.960716,329.042633 76.329964,310.697113
	C73.791336,306.316223 71.277092,301.912598 69.007896,297.390808
	C68.498672,296.376068 68.628433,294.576721 69.203232,293.554047
	C74.637024,283.886536 80.209793,274.296783 85.783646,264.708527
	C93.817459,250.888626 101.952850,237.127335 109.922424,223.270599
	C120.493095,204.891327 130.912811,186.425308 141.459305,168.032028
	C150.057098,153.037354 158.736618,138.089478 167.406372,123.136192
	C168.439758,121.353821 169.639572,119.667953 170.991837,117.583405
	C178.161865,129.975327 185.067871,141.923508 191.986206,153.864548
	C200.078552,167.831924 208.203247,181.780594 216.273499,195.760712
	C223.203903,207.766281 230.063354,219.812790 236.979660,231.826553
	C245.438019,246.518860 253.935120,261.188904 262.390137,275.883118
	C265.565826,281.402313 268.957489,286.827972 271.650330,292.577423
	C272.581604,294.565826 272.568481,297.898804 271.505035,299.779938
	C260.586243,319.093842 249.368668,338.238953 238.222458,357.424194
	C227.572174,375.755829 216.838623,394.039520 206.269806,412.417969
	C196.591599,429.247711 187.094223,446.181396 177.493546,463.055847
	C175.727020,466.160736 173.847855,469.201569 172.010345,472.635986
	C171.555557,473.000000 171.111099,473.000000 170.333328,473.000000
z"/>
<path fill="#F9C21C" opacity="1.000000" stroke="none"
	d="
M273.666687,1.000002
	C284.255920,18.787228 294.541534,36.557430 304.759674,54.366341
	C315.468323,73.030121 326.108185,91.733368 336.794403,110.410027
	C337.441437,111.540802 338.264404,112.569412 338.950317,113.679649
	C340.881256,116.805092 341.081543,119.744141 339.068359,123.151329
	C326.964111,143.636978 314.971100,164.189270 303.073242,184.795685
	C293.618835,201.170151 284.357697,217.656189 274.990234,234.080994
	C274.596741,234.770981 273.995178,235.342316 272.972382,236.612259
	C270.890869,233.365982 268.896698,230.522552 267.172241,227.524048
	C254.168808,204.913712 241.250961,182.254150 228.238235,159.649200
	C221.326263,147.642151 214.318405,135.689697 207.267441,123.763672
	C205.187820,120.246193 204.938004,117.157074 207.158035,113.397743
	C219.257477,92.908905 231.149307,72.297073 243.052429,51.692822
	C252.669800,35.045208 262.202026,18.348421 271.886017,1.336721
	C272.444458,1.000000 272.888885,1.000000 273.666687,1.000002
z"/>
<path fill="#F9C21C" opacity="1.000000" stroke="none"
	d="
M69.666672,1.000000
	C74.210281,8.701552 78.308403,16.467072 82.656372,24.090092
	C89.681488,36.406776 96.885468,48.621323 103.987457,60.894318
	C113.379845,77.125381 122.741798,93.374062 132.129669,109.607742
	C133.596695,112.144531 135.314346,114.558029 136.531311,117.205429
	C136.929626,118.071922 136.374390,119.651016 135.805374,120.647293
	C124.963104,139.631058 114.060135,158.580185 103.156097,177.528641
	C91.944092,197.012268 80.717415,216.487473 68.941849,236.930389
	C66.308807,232.701920 63.947582,229.123795 61.797783,225.422867
	C47.871883,201.448853 33.974701,177.458084 20.105034,153.451477
	C13.914359,142.736237 7.809379,131.971481 1.332754,121.114594
	C1.000000,119.611107 1.000000,118.222221 1.332225,116.301338
	C4.754956,110.611908 7.937213,105.506859 10.918395,100.286980
	C19.137835,85.895203 27.195333,71.410599 35.461044,57.045662
	C46.234791,38.322018 57.147240,19.678179 68.000000,1.000001
	C68.444443,1.000000 68.888893,1.000000 69.666672,1.000000
z"/>
<path fill="#000000" opacity="0.600000" stroke="none"
	d="
M1254.819336,310.315216
	C1244.127808,300.089233 1234.234863,289.732666 1227.854248,276.488220
	C1220.866821,261.984344 1217.246216,246.866714 1216.858398,230.684433
	C1216.392334,211.243164 1219.636475,192.662094 1229.168091,175.812073
	C1242.695312,151.898224 1262.011353,134.767548 1289.098022,126.759064
	C1302.204590,122.883949 1315.394775,122.049088 1328.524902,123.251427
	C1348.149292,125.048439 1365.634644,132.856369 1381.127441,145.427078
	C1391.864868,154.139313 1400.365112,164.577271 1406.619995,176.570663
	C1412.096191,187.071014 1416.190063,198.387680 1416.961060,210.470932
	C1417.496704,218.868896 1418.223633,227.312363 1417.889526,235.696640
	C1417.072510,256.205048 1410.314453,274.712372 1398.210815,291.384735
	C1388.330688,304.994232 1375.656006,315.147552 1360.795532,322.575134
	C1343.399658,331.269928 1324.598511,333.926208 1305.575195,331.754944
	C1287.453979,329.686676 1270.644775,323.117950 1256.423706,311.079529
	C1256.077881,310.786774 1255.521729,310.742767 1254.819336,310.315216
M1361.970581,259.325165
	C1363.647339,255.177078 1365.871460,251.158081 1366.886353,246.853928
	C1368.964966,238.039276 1370.334229,229.269104 1369.249268,219.908646
	C1367.625732,205.900116 1363.142212,193.440338 1353.579346,183.218307
	C1342.304199,171.165970 1328.377808,165.865524 1311.615112,167.885925
	C1300.902832,169.177063 1291.574585,173.158295 1284.071777,180.575394
	C1269.313843,195.164978 1263.899780,213.096802 1265.897339,233.694565
	C1267.150879,246.621918 1271.445312,257.776917 1279.405640,268.245026
	C1290.413696,282.720886 1310.964722,289.292145 1327.444946,285.770813
	C1342.747437,282.501190 1353.813599,273.366028 1361.970581,259.325165
z"/>
<path fill="#000000" opacity="0.600000" stroke="none"
	d="
M911.000000,184.886261
	C911.000000,186.794205 911.000000,188.253128 911.000000,190.559525
	C906.247620,186.876480 902.146179,183.587280 897.929688,180.452820
	C888.787598,173.656662 878.795898,169.026566 867.476685,166.685913
	C845.406860,162.122223 820.544861,169.793304 806.430176,188.707260
	C798.128784,199.831451 794.535950,212.172791 794.254639,225.233749
	C793.858826,243.612320 799.218872,260.528534 813.145447,273.564789
	C822.374634,282.203857 833.527649,286.438934 846.128845,288.204193
	C857.485352,289.795044 867.944885,286.773712 878.841064,284.706268
	C878.841064,275.339600 878.841064,266.033264 878.841064,256.329193
	C866.873108,256.329193 854.798889,256.329193 842.362793,256.329193
	C842.362793,242.871826 842.362793,229.799362 842.362793,216.362885
	C869.462097,216.362885 896.862244,216.362885 924.631470,216.362885
	C924.631470,248.277359 924.631470,280.497253 924.631470,312.678345
	C907.651489,321.063049 889.938477,328.146179 871.080750,330.777924
	C842.353027,334.787109 814.326111,332.201111 789.760193,314.875305
	C767.597412,299.244385 752.738281,278.367401 747.994812,251.141281
	C743.494690,225.311996 744.934998,200.154633 757.817627,176.669556
	C772.188171,150.471924 793.782837,133.448364 822.905273,125.921021
	C836.371033,122.440521 850.034790,122.289627 863.600830,123.198311
	C880.530640,124.332298 896.051758,130.547745 910.771301,139.047180
	C915.996338,142.064270 915.208801,146.141891 914.797852,150.410934
	C914.033142,158.353699 912.928406,166.263290 912.010315,174.191910
	C911.615601,177.600327 911.333313,181.021744 911.000000,184.886261
z"/>
<path fill="#000000" opacity="0.600000" stroke="none"
	d="
M687.743652,251.315887
	C704.015869,274.283386 720.074036,296.948425 736.100220,319.636108
	C737.456055,321.555542 738.598206,323.625977 740.071472,325.999939
	C722.655151,325.999939 705.848083,326.056732 689.043030,325.895966
	C687.645020,325.882599 685.763489,324.741730 684.944275,323.549286
	C669.052124,300.416077 653.192871,277.258636 637.589478,253.930542
	C635.205994,250.367081 632.945251,248.092804 628.168701,249.279190
	C628.168701,274.521759 628.168701,299.953033 628.168701,325.691345
	C612.757690,325.691345 597.685730,325.691345 582.306030,325.691345
	C582.306030,260.419525 582.306030,195.019180 582.306030,129.228531
	C583.580505,129.158127 585.011292,129.011200 586.442200,129.010208
	C607.773193,128.995453 629.121460,128.466187 650.430176,129.154648
	C670.529236,129.804016 689.297302,134.971359 703.317749,150.862823
	C711.683411,160.344894 716.651672,171.260284 717.062500,184.173889
	C717.448364,196.299973 715.414795,207.628479 709.055847,218.198502
	C702.861511,228.494873 693.704895,235.193192 683.556213,240.905640
	C683.003052,241.217041 682.394775,241.429260 681.824280,241.712128
	C681.684692,241.781326 681.593079,241.947433 681.269043,242.293930
	C683.323120,245.160614 685.422119,248.089996 687.743652,251.315887
M670.608032,204.913391
	C673.147644,198.893738 674.410889,192.888947 673.147827,186.159058
	C671.684082,178.360199 668.229370,172.367340 660.856384,169.440109
	C650.419739,165.296570 639.410583,164.745743 628.224060,165.061874
	C628.224060,183.542328 628.224060,201.600693 628.224060,220.296432
	C635.342896,219.844910 642.358276,220.175018 649.013306,218.782669
	C657.430542,217.021652 665.987732,214.532516 670.608032,204.913391
z"/>
<path fill="#000000" opacity="0.600000" stroke="none"
	d="
M447.277771,160.292038
	C453.007568,148.708282 458.446625,137.404663 464.054932,126.185646
	C464.705780,124.883698 466.284485,123.242332 467.451904,123.227318
	C468.624084,123.212234 470.307129,124.797379 470.933929,126.086060
	C485.698456,156.442764 500.350098,186.854401 515.022827,217.255798
	C524.102966,236.069580 533.203125,254.873749 542.258606,273.699402
	C550.532166,290.899567 558.757690,308.122864 567.322510,326.000000
	C557.414673,326.000000 548.008789,326.000000 538.602966,326.000000
	C532.437439,326.000000 526.265442,326.150024 520.111328,325.885071
	C518.725952,325.825439 516.700195,324.630280 516.164612,323.426178
	C512.587646,315.384369 509.408661,307.166016 505.881195,299.100922
	C505.447601,298.109558 503.716705,297.093109 502.582397,297.087860
	C477.920776,296.973175 453.258423,296.981415 428.596527,297.060150
	C427.440033,297.063812 425.599579,297.635132 425.236572,298.455139
	C421.225891,307.514862 417.444855,316.676208 413.606293,325.798950
	C397.772552,325.798950 382.007050,325.798950 365.671814,325.798950
	C392.920929,270.473480 419.979218,215.535431 447.277771,160.292038
M457.964874,220.362579
	C451.920441,234.431137 445.876007,248.499710 439.778687,262.691437
	C456.798126,262.691437 473.317657,262.691437 490.328705,262.691437
	C482.004150,242.596130 473.861450,222.939819 465.470520,202.684296
	C462.797638,208.758835 460.418243,214.166382 457.964874,220.362579
z"/>
<path fill="#000000" opacity="0.600000" stroke="none"
	d="
M1207.000000,163.911743
	C1207.000000,166.053329 1207.000000,167.706406 1207.000000,169.758179
	C1186.446777,169.758179 1166.040405,169.758179 1145.240601,169.758179
	C1145.240601,221.890274 1145.240601,273.626190 1145.240601,325.680664
	C1129.446167,325.680664 1114.040527,325.680664 1098.237793,325.680664
	C1098.237793,274.106964 1098.237793,222.371048 1098.237793,170.237061
	C1077.110229,170.237061 1056.369995,170.237061 1035.315918,170.237061
	C1035.315918,156.439590 1035.315918,143.033676 1035.315918,129.312958
	C1092.233887,129.312958 1149.301880,129.312958 1207.000000,129.312958
	C1207.000000,140.575897 1207.000000,151.999573 1207.000000,163.911743
z"/>
<path fill="#000000" opacity="0.600000" stroke="none"
	d="
M1012.000000,287.000000
	C1012.000000,300.143036 1012.000000,312.786072 1012.000000,325.714050
	C996.377808,325.714050 980.972961,325.714050 965.283203,325.714050
	C965.283203,260.373444 965.283203,194.972916 965.283203,129.286011
	C980.622070,129.286011 996.026917,129.286011 1012.000000,129.286011
	C1012.000000,181.649933 1012.000000,234.074966 1012.000000,287.000000
z"/>
</svg>